<svg width="57" height="57" viewBox="0 0 57 57" fill="none" xmlns="http://www.w3.org/2000/svg">
<path d="M42.8925 54.625H46.835C48.83 54.625 50.4688 53.0813 50.7063 51.1338L54.625 11.9938H42.75V2.375H38.0713V11.9938H26.2675L26.98 17.5512C31.0412 18.6675 34.8413 20.6862 37.1213 22.9187C40.5413 26.2912 42.8925 29.7825 42.8925 35.4825V54.625ZM2.375 52.25V49.875H38.0713V52.25C38.0713 53.5325 37.0025 54.625 35.625 54.625H4.75C3.44375 54.625 2.375 53.5325 2.375 52.25ZM38.0713 35.625C38.0713 16.625 2.375 16.625 2.375 35.625H38.0713ZM2.375 40.375H38V45.125H2.375V40.375Z" fill="#E79A1D"/>
</svg>
