<svg width="41" height="41" viewBox="0 0 41 41" fill="none" xmlns="http://www.w3.org/2000/svg">
<path d="M28.6695 11.6416L28.2189 7.03865C28.1392 6.22479 27.7395 5.47592 27.1077 4.95678C26.4758 4.43763 25.6636 4.19075 24.8498 4.27043C24.0359 4.35011 23.2871 4.74983 22.7679 5.38166C22.2488 6.01348 22.0019 6.82566 22.0816 7.63952M22.9829 16.8455C22.9829 16.8455 26.0515 16.5451 29.4206 19.3133C32.1889 15.9442 35.2575 15.6438 35.2575 15.6438" stroke="#E79A1D" stroke-width="2" stroke-linecap="round" stroke-linejoin="round"/>
<path d="M22.9829 16.8455C22.7275 14.2371 24.5269 12.0472 27.1352 11.7918M27.1352 11.7918L30.2039 11.4914M27.1352 11.7918C28.3336 11.6745 29.0055 11.6087 30.2039 11.4914M30.2039 11.4914C32.8122 11.236 35.0022 13.0354 35.2575 15.6437" stroke="#E79A1D" stroke-width="2" stroke-linecap="round" stroke-linejoin="round"/>
<path d="M22.9828 16.8455C23.6438 23.5966 19.4281 29.5858 13.4443 30.1717C10.3756 30.4721 7.63204 29.3466 5.41208 27.2404C5.23738 27.0746 5.4487 27.6144 5.47217 27.8541C5.96789 32.9174 11.8971 36.5193 18.6481 35.8584C28.7747 34.8669 36.2489 25.7704 35.2575 15.6438" stroke="#E79A1D" stroke-width="2" stroke-linecap="round" stroke-linejoin="round"/>
</svg>
