<svg width="62" height="62" viewBox="0 0 62 62" fill="none" xmlns="http://www.w3.org/2000/svg">
<path d="M29.4431 50.7579C31.1353 52.3436 33.1623 53.5285 35.3742 54.2251C37.5861 54.9216 39.9263 55.112 42.2217 54.7822C44.5172 54.4524 46.7091 53.6107 48.6353 52.3195C50.5616 51.0283 52.1729 49.3205 53.3502 47.3226C56.4655 42.2569 56.2699 35.6224 52.8731 30.7236C49.9424 26.4759 45.5227 24.2279 41.0206 23.9577C37.7547 23.7452 34.6805 22.6129 32.3364 20.4194L32.26 20.3479C29.3044 17.5823 24.9395 17.7272 22.3654 20.5036L20.0051 23.0261C18.7568 24.361 18.0897 26.1369 18.1503 27.9635C18.211 29.7901 18.9944 31.5178 20.3285 32.767C22.8 35.0796 24.2118 38.1928 24.6955 41.6083C25.1776 44.9745 26.767 48.2299 29.4431 50.7579ZM10.722 17.0636C9.36315 17.7753 7.67887 17.609 6.506 16.4877C5.97978 16.0026 5.60657 15.3745 5.43217 14.6804C5.25775 13.9863 5.28972 13.2564 5.52415 12.5802C5.75858 11.904 6.18527 11.3109 6.75188 10.8737C7.3185 10.4365 8.0004 10.1742 8.71394 10.119C8.72174 9.40335 8.93824 8.70556 9.33688 8.11119C9.73553 7.51682 10.299 7.05173 10.9581 6.77297C11.6173 6.49421 12.3435 6.41389 13.0476 6.54187C13.7518 6.66986 14.4032 7.00058 14.9221 7.49346C16.0942 8.59018 16.3973 10.2836 15.7765 11.662L21.972 17.5788C21.515 17.9397 20.9855 18.3522 20.5564 18.8109L18.196 21.3333C17.72 21.8676 17.3172 22.3747 16.9686 23.0281L10.722 17.0636Z" fill="#E79A1D"/>
</svg>
