<svg width="64" height="66" viewBox="0 0 64 66" fill="none" xmlns="http://www.w3.org/2000/svg">
<path d="M9.75412 6.55516C10.5956 2.14066 14.9162 -0.908739 19.4382 0.245709C37.1557 4.76784 51.7289 13.7961 61.8035 27.9038C64.6632 31.9041 62.9356 37.2193 58.781 39.3101L57.6529 39.8805L56.3913 37.7975L56.3684 37.7639C46.8489 23.3526 31.0551 12.9469 12.8367 9.4741L9.3253 8.80474L9.75412 6.55516ZM8.55757 12.8322L0.114108 57.1264C-0.832679 62.0932 4.29306 66.0199 8.8466 63.8088L16.2499 60.2148L16.2484 60.2228C16.0446 61.292 16.2738 62.3984 16.8858 63.2986C17.4977 64.1988 18.4422 64.819 19.5114 65.0228C20.5806 65.2266 21.687 64.9974 22.5872 64.3854C23.4874 63.7735 24.1076 62.829 24.3114 61.7598L25.8499 53.6887C25.9515 53.1783 26.2431 52.7256 26.6659 52.4221C27.0886 52.1186 27.6109 51.9871 28.1269 52.0541C28.643 52.1212 29.1143 52.3818 29.4455 52.7832C29.7766 53.1846 29.9429 53.6969 29.9106 54.2163L29.4803 56.4739C29.2765 57.5432 29.5057 58.6496 30.1177 59.5497C30.7296 60.4499 31.6741 61.0701 32.7433 61.2739C33.8125 61.4778 34.9189 61.2485 35.8191 60.6366C36.7193 60.0246 37.3395 59.0802 37.5433 58.0109L39.2632 48.9884C43.0541 47.1834 48.8748 44.2862 53.9742 41.7321L52.9234 39.9901C44.039 26.5647 29.2392 16.7746 12.065 13.5008L8.55757 12.8322ZM23.5762 27.1512C23.5005 27.5469 23.3476 27.9238 23.1262 28.2604C22.9049 28.597 22.6194 28.8867 22.286 29.113C21.9527 29.3392 21.5781 29.4976 21.1835 29.5791C20.789 29.6606 20.3823 29.6636 19.9866 29.5879C19.5909 29.5122 19.214 29.3593 18.8774 29.1379C18.5407 28.9165 18.251 28.631 18.0248 28.2977C17.7985 27.9644 17.6401 27.5898 17.5586 27.1952C17.4771 26.8007 17.4742 26.3939 17.5499 25.9982C17.7022 25.199 18.1658 24.493 18.8387 24.0356C19.5116 23.5782 20.3386 23.4068 21.1379 23.5591C21.9371 23.7115 22.6431 24.1751 23.1005 24.848C23.5579 25.5209 23.7293 26.3479 23.577 27.1471M34.0337 37.4964C33.8813 38.2957 33.4177 39.0017 32.7449 39.4591C32.072 39.9165 31.2449 40.0879 30.4457 39.9355C29.6465 39.7832 28.9405 39.3196 28.483 38.6467C28.0256 37.9738 27.8542 37.1468 28.0066 36.3475C28.159 35.5483 28.6226 34.8423 29.2954 34.3849C29.9683 33.9275 30.7954 33.7561 31.5946 33.9084C32.3938 34.0608 33.0998 34.5244 33.5572 35.1973C34.0147 35.8702 34.1861 36.6972 34.0337 37.4964ZM20.1494 45.3031C19.9963 46.1067 19.5302 46.8164 18.8537 47.2763C18.1772 47.7362 17.3458 47.9085 16.5422 47.7553C15.7387 47.6021 15.029 47.136 14.5691 46.4595C14.1092 45.7831 13.9369 44.9516 14.0901 44.1481C14.2433 43.3446 14.7094 42.6348 15.3858 42.1749C16.0623 41.7151 16.8938 41.5428 17.6973 41.6959C18.5008 41.8491 19.2106 42.3152 19.6704 42.9917C20.1303 43.6682 20.3026 44.4996 20.1494 45.3031Z" fill="#E79A1D"/>
</svg>
